<?xml version="1.0" encoding="UTF-8"?>
<svg version="1.1" xmlns="http://www.w3.org/2000/svg" width="1024" height="1024">
<path d="M0 0 C19.57266342 16.70767936 31.6939843 39.49176687 33.9375 65.1875 C34.07585311 67.353355 34.20183339 69.52005396 34.3125 71.6875 C34.37630859 72.88439453 34.37630859 72.88439453 34.44140625 74.10546875 C35.32838911 108.46127136 20.72283023 141.12187893 1.3125 168.6875 C0.93125977 169.23325684 0.55001953 169.77901367 0.15722656 170.34130859 C-5.88395103 178.97955971 -12.19391496 187.38544095 -18.6875 195.6875 C-19.45835937 196.68910156 -20.22921875 197.69070313 -21.0234375 198.72265625 C-21.73757813 199.63917969 -22.45171875 200.55570313 -23.1875 201.5 C-24.13109375 202.71623047 -24.13109375 202.71623047 -25.09375 203.95703125 C-25.6196875 204.52808594 -26.145625 205.09914063 -26.6875 205.6875 C-27.3475 205.6875 -28.0075 205.6875 -28.6875 205.6875 C-28.93113281 206.24953125 -29.17476562 206.8115625 -29.42578125 207.390625 C-30.92930936 210.12769785 -32.75449748 212.14545941 -34.875 214.4375 C-37.61941336 217.43021743 -40.34882606 220.42437703 -43 223.5 C-46.71040534 227.76783713 -50.56267907 231.90243002 -54.42504883 236.0324707 C-56.71221777 238.4901955 -58.86842718 240.92147389 -60.92578125 243.58203125 C-61.50714844 244.27683594 -62.08851563 244.97164062 -62.6875 245.6875 C-63.3475 245.6875 -64.0075 245.6875 -64.6875 245.6875 C-64.95175781 246.28175781 -65.21601563 246.87601563 -65.48828125 247.48828125 C-66.73168284 249.76852587 -67.97934276 251.11815519 -69.875 252.875 C-73.41902352 256.28556657 -76.31194105 259.99651645 -79.20703125 263.96484375 C-79.93986328 264.81755859 -79.93986328 264.81755859 -80.6875 265.6875 C-81.3475 265.6875 -82.0075 265.6875 -82.6875 265.6875 C-82.91050781 266.23019531 -83.13351562 266.77289062 -83.36328125 267.33203125 C-85.10380004 270.42799829 -87.44134525 272.8230879 -89.875 275.375 C-93.74796426 279.52012529 -97.41213619 283.70940497 -100.83203125 288.2421875 C-102.67613523 290.67252242 -104.5742537 293.05503777 -106.48046875 295.43676758 C-117.8835793 309.7525424 -127.90276641 324.62491637 -136.6875 340.6875 C-137.03151855 341.31221191 -137.37553711 341.93692383 -137.72998047 342.58056641 C-145.98371065 357.73987524 -151.22855034 373.83906779 -154.6875 390.6875 C-154.8625708 391.43507568 -155.0376416 392.18265137 -155.21801758 392.95288086 C-159.88861486 420.15795633 -154.64632075 450.48005162 -139.6875 473.6875 C-137.54295748 476.60938567 -135.32096312 479.46840425 -133.02636719 482.27392578 C-130.82781993 484.99621962 -129.13831802 487.15750983 -128.6875 490.6875 C-130.6875 491.6875 -130.6875 491.6875 -134.4765625 490.53515625 C-136.09259999 489.95121562 -137.7043449 489.35531065 -139.3125 488.75 C-140.58661743 488.27445679 -140.58661743 488.27445679 -141.88647461 487.78930664 C-162.87211984 479.76970133 -181.35133129 468.13700166 -197.6875 452.6875 C-198.863125 451.59115234 -198.863125 451.59115234 -200.0625 450.47265625 C-205.40790635 445.33492616 -209.71487268 439.94070967 -213.6875 433.6875 C-214.285625 432.7490625 -214.88375 431.810625 -215.5 430.84375 C-229.27170604 408.28664527 -233.51491959 380.93121638 -227.84765625 355.0859375 C-220.95723056 327.48620113 -206.22431485 303.70000275 -188.6875 281.6875 C-187.93597656 280.74132812 -187.18445313 279.79515625 -186.41015625 278.8203125 C-181.80832969 273.11048904 -176.99364023 267.64091504 -172.02734375 262.24609375 C-170.01844152 260.04938097 -168.06235887 257.82200631 -166.125 255.5625 C-162.82953518 251.75943989 -159.27232715 248.25510445 -155.69140625 244.72265625 C-153.50585893 242.50302632 -151.59877443 240.14485284 -149.6875 237.6875 C-147.29218356 235.16934682 -144.93518942 232.8794593 -142.1875 230.75 C-139.80917994 228.78788595 -138.03304145 226.69478826 -136.1105957 224.29980469 C-134.55829199 222.54111302 -132.89987822 221.08857534 -131.10546875 219.578125 C-125.37162225 214.62447368 -120.15524648 209.16779498 -114.87109375 203.74414062 C-114.10152344 202.96361328 -113.33195312 202.18308594 -112.5390625 201.37890625 C-111.84635254 200.66935791 -111.15364258 199.95980957 -110.43994141 199.22875977 C-108.6875 197.6875 -108.6875 197.6875 -106.6875 197.6875 C-106.44 197.11 -106.1925 196.5325 -105.9375 195.9375 C-104.50450012 193.35810021 -102.90325324 191.62628408 -100.6875 189.6875 C-100.0275 189.6875 -99.3675 189.6875 -98.6875 189.6875 C-98.6875 189.0275 -98.6875 188.3675 -98.6875 187.6875 C-98.0275 187.6875 -97.3675 187.6875 -96.6875 187.6875 C-96.6875 187.0275 -96.6875 186.3675 -96.6875 185.6875 C-96.0275 185.6875 -95.3675 185.6875 -94.6875 185.6875 C-94.6875 185.0275 -94.6875 184.3675 -94.6875 183.6875 C-92.8125 181.5625 -92.8125 181.5625 -90.6875 179.6875 C-90.0275 179.6875 -89.3675 179.6875 -88.6875 179.6875 C-88.44 179.06875 -88.1925 178.45 -87.9375 177.8125 C-86.45009631 175.28391373 -85.25071991 174.96910996 -82.6875 173.6875 C-82.40261719 173.09453125 -82.11773437 172.5015625 -81.82421875 171.890625 C-80.43244988 169.19317606 -78.69078759 167.53401963 -76.5 165.4375 C-71.47532635 160.52628673 -66.59426818 155.54765227 -62.6875 149.6875 C-62.0275 149.6875 -61.3675 149.6875 -60.6875 149.6875 C-60.27564453 148.80723145 -60.27564453 148.80723145 -59.85546875 147.90917969 C-58.72872181 145.76591105 -57.50761455 144.02927364 -56 142.140625 C-55.47100098 141.46894287 -54.94200195 140.79726074 -54.39697266 140.10522461 C-53.83284668 139.38987549 -53.2687207 138.67452637 -52.6875 137.9375 C-35.71971965 116.00646739 -21.97126697 91.76333706 -24.9609375 63.0625 C-26.45114048 54.96479326 -30.63313425 49.15793146 -36.84375 43.9140625 C-43.50746092 39.48100058 -51.01949096 40.06660858 -58.6875 40.6875 C-70.13260755 43.21807654 -78.11958702 49.87916814 -86.10083008 58.08081055 C-97.7104066 69.95913579 -111.56844816 78.784569 -125.63818359 87.42773438 C-126.96580861 88.2438584 -128.29176829 89.06270027 -129.61572266 89.88476562 C-142.06476632 97.61063887 -154.9442839 104.08021988 -168.3125 110.0625 C-169.43168823 110.56342163 -169.43168823 110.56342163 -170.57348633 111.07446289 C-174.55739088 112.83038045 -178.52530811 114.38763565 -182.6875 115.6875 C-182.6875 110.88796597 -181.99281593 110.53716213 -178.75 107.25 C-171.17482721 99.11678157 -165.26602774 90.25005207 -160.25 80.375 C-159.75487915 79.40699463 -159.75487915 79.40699463 -159.24975586 78.41943359 C-155.54080266 70.83853893 -154.4603256 63.81390879 -154.25 55.4375 C-153.49544368 37.90039572 -147.57229258 20.26983266 -134.6875 7.6875 C-134.0275 7.6875 -133.3675 7.6875 -132.6875 7.6875 C-132.6875 7.0275 -132.6875 6.3675 -132.6875 5.6875 C-131.05646408 4.18623909 -129.35532355 2.76065614 -127.625 1.375 C-126.68527344 0.61574219 -125.74554688 -0.14351563 -124.77734375 -0.92578125 C-118.96980448 -5.41175659 -113.35276939 -9.26386973 -106.6875 -12.375 C-105.95418457 -12.71861572 -105.22086914 -13.06223145 -104.46533203 -13.41625977 C-69.87436434 -29.09715123 -29.47066616 -23.14666627 0 0 Z " fill="#8DB7D0" transform="translate(484.6875,268.3125)"/>
<path d="M0 0 C0.99 0.33 1.98 0.66 3 1 C3.50273592 33.32978676 -0.1782821 64.23857643 -18 92 C-18.54527344 92.88171875 -19.09054687 93.7634375 -19.65234375 94.671875 C-24.01408702 101.19965404 -29.37357603 106.6774807 -34.875 112.25 C-35.9894751 113.38550293 -35.9894751 113.38550293 -37.12646484 114.54394531 C-54.23500166 131.5070838 -77.49478148 141.78198121 -100.125 149.125 C-101.04595459 149.42543213 -101.96690918 149.72586426 -102.91577148 150.03540039 C-121.99194699 156.01143688 -141.5908025 160.10136666 -161.1875 163.9375 C-163.38191 164.37185905 -165.57624474 164.80659852 -167.77050781 165.24169922 C-179.84201212 167.62865029 -191.92546077 169.94705022 -204.02108765 172.20825195 C-254.77553552 181.69800017 -306.53049762 191.5980273 -353 215 C-353.78842285 215.38752441 -354.5768457 215.77504883 -355.38916016 216.17431641 C-380.52985125 228.55944866 -404.34890627 246.55449383 -420.30078125 269.83984375 C-422 272 -422 272 -425 273 C-432.4807795 258.03844099 -424.16714295 229.81400699 -419.25 214.6875 C-410.92457114 190.63833318 -397.33387924 171.41890069 -380 153 C-379.35160156 152.3090625 -378.70320313 151.618125 -378.03515625 150.90625 C-376.73546178 149.55888947 -375.37559171 148.26977697 -374 147 C-373.34 147 -372.68 147 -372 147 C-372 146.34 -372 145.68 -372 145 C-368.91719915 142.04887658 -365.40351841 139.56937899 -362 137 C-361.06655762 136.2889209 -361.06655762 136.2889209 -360.11425781 135.56347656 C-325.18813978 109.11045849 -285.2103014 92.96660275 -243.36181641 80.96679688 C-240.46900546 80.13487739 -237.58292065 79.28468847 -234.69921875 78.421875 C-207.46448896 70.34199233 -179.66475383 64.13512513 -151.96337891 57.89355469 C-141.9650457 55.64065621 -131.97506422 53.35390728 -122 51 C-120.89172852 50.73896484 -119.78345703 50.47792969 -118.64160156 50.20898438 C-57.23331851 35.62872491 -57.23331851 35.62872491 -4 3 C-3.34 3 -2.68 3 -2 3 C-2 2.34 -2 1.68 -2 1 C-1.34 0.67 -0.68 0.34 0 0 Z " fill="#8CB7D0" transform="translate(790,477)"/>
<path d="M0 0 C0.66 0.33 1.32 0.66 2 1 C0.76786494 10.7099599 -1.81378767 19.7863669 -5 29 C-5.61294922 30.79050781 -5.61294922 30.79050781 -6.23828125 32.6171875 C-14.32385196 54.41722181 -27.61978044 72.85715266 -43.58447266 89.51708984 C-44.86555551 90.8591556 -46.12733217 92.21958521 -47.38671875 93.58203125 C-58.55706587 105.32132645 -72.19290338 114.629147 -86 123 C-87.05832031 123.65226563 -88.11664062 124.30453125 -89.20703125 124.9765625 C-138.76343451 154.48701853 -199.25625268 164.36761193 -256 168 C-257.03453308 168.07098404 -257.03453308 168.07098404 -258.08996582 168.1434021 C-276.81558315 169.39387259 -295.600971 169.19681341 -314.35842514 169.18847656 C-317.14264869 169.18749377 -319.92686671 169.1884829 -322.71109009 169.18969727 C-349.51749529 169.19405644 -376.24716366 168.86745873 -403 167 C-403.33 166.01 -403.66 165.02 -404 164 C-390.66935201 141.73781786 -367.25938037 125.3304604 -345 113 C-344.27345215 112.59297852 -343.5469043 112.18595703 -342.79833984 111.76660156 C-332.26027757 105.90151613 -321.64205858 101.03747566 -310.32348633 96.89233398 C-307.59626236 95.84494472 -304.92021539 94.69613531 -302.234375 93.546875 C-296.15544756 90.9970295 -289.99639207 88.96116136 -283.6875 87.0625 C-282.5521582 86.71896484 -281.41681641 86.37542969 -280.24707031 86.02148438 C-241.25049447 74.33882818 -201.12895296 67.38246254 -161.12744141 60.11425781 C-73.57278168 45.808027 -73.57278168 45.808027 0 0 Z " fill="#8DB7D0" transform="translate(779,597)"/>
<path d="M0 0 C28.38 0 56.76 0 86 0 C86 0.33 86 0.66 86 1 C77.585 1.495 77.585 1.495 69 2 C69 2.33 69 2.66 69 3 C46.23 3 23.46 3 0 3 C0 2.01 0 1.02 0 0 Z " fill="#85AFC9" transform="translate(428,763)"/>
<path d="M0 0 C0.66 0 1.32 0 2 0 C1.43867138 4.42118622 0.63222983 8.66297758 -0.40917969 13.00268555 C-3.50844459 26.18601892 -4.25570523 39.51041364 -5 53 C-5.66 53 -6.32 53 -7 53 C-7.69428678 34.72957643 -6.22377863 17.30226195 0 0 Z " fill="#85AECA" transform="translate(371,692)"/>
<path d="M0 0 C0.99 0.33 1.98 0.66 3 1 C3.02915731 5.04165139 3.04685173 9.0832755 3.0625 13.125 C3.07087891 14.26710938 3.07925781 15.40921875 3.08789062 16.5859375 C3.09111328 17.69453125 3.09433594 18.803125 3.09765625 19.9453125 C3.10289307 20.96125488 3.10812988 21.97719727 3.11352539 23.02392578 C2.99652309 26.09114726 2.56776417 28.98633134 2 32 C1.34 32 0.68 32 0 32 C-0.33 23.09 -0.66 14.18 -1 5 C-2.65 6.32 -4.3 7.64 -6 9 C-6.66 9 -7.32 9 -8 9 C-6.95125002 6.37812506 -6.35068687 5.20628639 -3.875 3.75 C-3.25625 3.5025 -2.6375 3.255 -2 3 C-2 2.34 -2 1.68 -2 1 C-1.34 0.67 -0.68 0.34 0 0 Z " fill="#79ABC6" transform="translate(790,477)"/>
<path d="M0 0 C-3.82152389 2.54768259 -5.18858376 1.94985534 -9.625 1.1875 C-10.79289062 0.99542969 -11.96078125 0.80335938 -13.1640625 0.60546875 C-16 0 -16 0 -17 -1 C-19.07454347 -1.01679563 -21.14973232 -0.96256686 -23.22265625 -0.87890625 C-24.48271484 -0.83056641 -25.74277344 -0.78222656 -27.04101562 -0.73242188 C-28.38151508 -0.67589183 -29.72200982 -0.61924973 -31.0625 -0.5625 C-32.40688246 -0.50929396 -33.75128343 -0.45655347 -35.09570312 -0.40429688 C-38.39734657 -0.27412455 -41.69872443 -0.13914389 -45 0 C-45 -0.66 -45 -1.32 -45 -2 C-31.70083759 -5.95841458 -13.11468218 -4.07258153 0 0 Z " fill="#81B0CE" transform="translate(450,250)"/>
<path d="M0 0 C0.99 0.33 1.98 0.66 3 1 C-4.05024311 9.36628849 -4.05024311 9.36628849 -7 12 C-7.66 12 -8.32 12 -9 12 C-9.23460937 12.54140625 -9.46921875 13.0828125 -9.7109375 13.640625 C-11.3583644 16.65591544 -13.42653344 19.11184012 -15.625 21.75 C-16.85089844 23.22726562 -16.85089844 23.22726562 -18.1015625 24.734375 C-18.72804688 25.48203125 -19.35453125 26.2296875 -20 27 C-20.66 26.34 -21.32 25.68 -22 25 C-15.37685782 16.048586 -7.92627778 7.81490151 0 0 Z " fill="#81ACC9" transform="translate(414,626)"/>
<path d="M0 0 C0.99 0.33 1.98 0.66 3 1 C2.38253906 1.66644531 1.76507813 2.33289063 1.12890625 3.01953125 C-4.82388826 9.49783882 -10.47570939 16.14900967 -16 23 C-17.65839866 25.00712736 -19.32789773 27.00426503 -21 29 C-21.33 28.01 -21.66 27.02 -22 26 C-20.48046875 23.6875 -20.48046875 23.6875 -18.1875 21 C-16.95193359 19.54400391 -16.95193359 19.54400391 -15.69140625 18.05859375 C-12.24706802 14.11661369 -8.72453113 10.24755022 -5.1640625 6.41015625 C-3.30779022 4.34279164 -1.6208858 2.25355413 0 0 Z " fill="#80ADCB" transform="translate(318,524)"/>
<path d="M0 0 C-4.75019426 3.16679617 -10.31888754 3.92355813 -15.82397461 5.1965332 C-17.92909773 5.68554817 -20.02988107 6.19077759 -22.13085938 6.69726562 C-23.47112149 7.01141099 -24.81160954 7.32459436 -26.15234375 7.63671875 C-27.9775354 8.06537231 -27.9775354 8.06537231 -29.83959961 8.50268555 C-32.72931224 8.9574051 -34.30234897 9.00423505 -37 8 C-36.01 8 -35.02 8 -34 8 C-34 7.34 -34 6.68 -34 6 C-30.02505412 4.98270245 -26.04448137 3.9893675 -22.0625 3 C-20.94552734 2.71382812 -19.82855469 2.42765625 -18.67773438 2.1328125 C-12.26541292 0.55323771 -6.60297384 -0.33610047 0 0 Z " fill="#7FACCB" transform="translate(677,528)"/>
<path d="M0 0 C0.66 0 1.32 0 2 0 C1.86722656 0.71800781 1.73445313 1.43601562 1.59765625 2.17578125 C0.25991588 10.01669744 -0.34848563 17.6910719 -0.57006836 25.63793945 C-0.5985083 26.41999756 -0.62694824 27.20205566 -0.65625 28.0078125 C-0.67494141 28.70535645 -0.69363281 29.40290039 -0.71289062 30.12158203 C-1 32 -1 32 -3 35 C-4.29619197 30.20506431 -3.9674751 25.65148198 -3.6875 20.75 C-3.65205078 19.94175781 -3.61660156 19.13351562 -3.58007812 18.30078125 C-3.25154061 12.17134991 -2.78298456 5.56596911 0 0 Z " fill="#71A9C5" transform="translate(334,303)"/>
<path d="M0 0 C0.9330194 3.04786336 0.98091431 5.29164425 0.5625 8.4375 C-0.41202481 17.58304052 -0.08313659 26.81532585 0 36 C-0.33 36 -0.66 36 -1 36 C-1 34.02 -1 32.04 -1 30 C-1.66 30 -2.32 30 -3 30 C-3.02922646 26.62501842 -3.04687468 23.25006979 -3.0625 19.875 C-3.07087891 18.92367187 -3.07925781 17.97234375 -3.08789062 16.9921875 C-3.10449608 12.20981513 -3.00537055 7.70228431 -2 3 C-1.34 3 -0.68 3 0 3 C0 2.01 0 1.02 0 0 Z " fill="#86B0CC" transform="translate(258,627)"/>
<path d="M0 0 C0.77734375 1.5859375 0.77734375 1.5859375 1 4 C-0.39021697 6.38408698 -1.77430142 8.44618623 -3.4375 10.625 C-3.89253906 11.23875488 -4.34757812 11.85250977 -4.81640625 12.48486328 C-6.19645427 14.33472513 -7.59543994 16.16870641 -9 18 C-9.78503906 19.03640625 -10.57007813 20.0728125 -11.37890625 21.140625 C-15.28325123 26.17385057 -15.28325123 26.17385057 -17 28 C-17.66 28 -18.32 28 -19 28 C-17.60901294 23.90756966 -15.694321 21.19396311 -12.875 17.9375 C-8.08272039 12.23647369 -4.01546497 6.26937719 0 0 Z " fill="#84B1CB" transform="translate(485,433)"/>
<path d="M0 0 C2.58476313 2.58476313 2.29806851 3.65174773 2.3125 7.25 C2.21720544 14.38842918 0.71572154 21.09626334 -1 28 C-1.66 28 -2.32 28 -3 28 C-2.3972149 18.59337993 -1.32867987 9.32655869 0 0 Z " fill="#82AFCD" transform="translate(516,348)"/>
<path d="M0 0 C0.67651367 1.77929688 0.67651367 1.77929688 1 4 C-0.1081543 5.76757812 -0.1081543 5.76757812 -1.82421875 7.53125 C-2.44103516 8.17707031 -3.05785156 8.82289063 -3.69335938 9.48828125 C-4.35142578 10.15214844 -5.00949219 10.81601562 -5.6875 11.5 C-6.32623047 12.16386719 -6.96496094 12.82773437 -7.62304688 13.51171875 C-10.71114676 16.71159061 -13.84355426 19.86752727 -17 23 C-17.99 22.67 -18.98 22.34 -20 22 C-19.14277344 21.16597656 -18.28554688 20.33195313 -17.40234375 19.47265625 C-11.11902206 13.3068313 -5.11732974 7.20147859 0 0 Z " fill="#81AECD" transform="translate(746,670)"/>
<path d="M0 0 C-4.04032566 3.50371991 -8.24952649 5.88352796 -13 8.25 C-14.04800781 8.79527344 -14.04800781 8.79527344 -15.1171875 9.3515625 C-18.87710184 11.23861385 -21.68272304 12.50593089 -26 12 C-22.43689038 9.10042865 -18.55058452 7.05717481 -14.5 4.9375 C-13.83613281 4.58623047 -13.17226563 4.23496094 -12.48828125 3.87304688 C-10.66220913 2.90898285 -8.83128208 1.95413038 -7 1 C-6.2471875 0.56816406 -5.494375 0.13632812 -4.71875 -0.30859375 C-3 -1 -3 -1 0 0 Z " fill="#81ABCC" transform="translate(693,719)"/>
<path d="M0 0 C0 4.08741199 -1.65464791 5.39333596 -4.1875 8.5625 C-8.22731366 13.73079316 -11.35720229 18.99726349 -14 25 C-14.33 25 -14.66 25 -15 25 C-14.5910338 15.59377729 -8.55869383 7.45991832 -2 1 C-1.34 0.67 -0.68 0.34 0 0 Z " fill="#85B0CD" transform="translate(351,277)"/>
<path d="M0 0 C0 0.99 0 1.98 0 3 C-7.67202093 5.12888539 -15.04601192 6.54593375 -23 7 C-23 6.34 -23 5.68 -23 5 C-15.35656288 3.20295366 -7.71164651 1.47966129 0 0 Z " fill="#83AECD" transform="translate(580,664)"/>
<path d="M0 0 C0.99 0.33 1.98 0.66 3 1 C-3.27 7.27 -9.54 13.54 -16 20 C-16.66 19.67 -17.32 19.34 -18 19 C-12.20862223 12.44191501 -6.25299712 6.11995462 0 0 Z " fill="#81B1CE" transform="translate(368,474)"/>
<path d="M0 0 C-3.05700613 3.05700613 -6.73435613 3.2900365 -10.875 4.1875 C-11.69097656 4.37763672 -12.50695312 4.56777344 -13.34765625 4.76367188 C-14.13785156 4.93833984 -14.92804687 5.11300781 -15.7421875 5.29296875 C-16.82282471 5.53309692 -16.82282471 5.53309692 -17.92529297 5.77807617 C-20.20524034 6.02195381 -21.82583712 5.68237244 -24 5 C-20.94299387 1.94299387 -17.26564387 1.7099635 -13.125 0.8125 C-12.30902344 0.62236328 -11.49304688 0.43222656 -10.65234375 0.23632812 C-9.46705078 -0.02567383 -9.46705078 -0.02567383 -8.2578125 -0.29296875 C-7.5373877 -0.4530542 -6.81696289 -0.61313965 -6.07470703 -0.77807617 C-3.79475966 -1.02195381 -2.17416288 -0.68237244 0 0 Z " fill="#84ADCE" transform="translate(634,538)"/>
<path d="M0 0 C-1.14871146 3.44613438 -1.66823563 3.69390338 -4.67578125 5.4453125 C-5.42150391 5.88230469 -6.16722656 6.31929688 -6.93554688 6.76953125 C-7.71994141 7.21683594 -8.50433594 7.66414063 -9.3125 8.125 C-10.08529297 8.58003906 -10.85808594 9.03507812 -11.65429688 9.50390625 C-15.09465614 11.49771721 -18.07823851 13.1826235 -22 14 C-20.86495427 10.5948628 -20.50056638 10.42366559 -17.5078125 8.80859375 C-16.80269531 8.42123047 -16.09757813 8.03386719 -15.37109375 7.63476562 C-14.62988281 7.23966797 -13.88867188 6.84457031 -13.125 6.4375 C-11.6687903 5.64541405 -10.21304339 4.85247654 -8.7578125 4.05859375 C-8.1095752 3.71111084 -7.46133789 3.36362793 -6.79345703 3.00561523 C-1.43311483 0 -1.43311483 0 0 0 Z " fill="#82ADC6" transform="translate(780,487)"/>
<path d="M0 0 C0.66 0.33 1.32 0.66 2 1 C1.34 4.3 0.68 7.6 0 11 C-0.66 11 -1.32 11 -2 11 C-2.33 9.68 -2.66 8.36 -3 7 C-5.97 9.475 -5.97 9.475 -9 12 C-9.33 11.01 -9.66 10.02 -10 9 C-9.52949219 8.60167969 -9.05898438 8.20335937 -8.57421875 7.79296875 C-7.95160156 7.26316406 -7.32898438 6.73335937 -6.6875 6.1875 C-6.07261719 5.66542969 -5.45773437 5.14335938 -4.82421875 4.60546875 C-3.14575321 3.12827531 -1.56117966 1.59960869 0 0 Z " fill="#75A5C6" transform="translate(779,597)"/>
<path d="M0 0 C-2.14837705 2.41400065 -3.81512401 3.50865462 -6.90625 4.421875 C-7.65003906 4.64230469 -8.39382813 4.86273437 -9.16015625 5.08984375 C-9.93230469 5.30769531 -10.70445312 5.52554688 -11.5 5.75 C-12.27214844 5.98332031 -13.04429687 6.21664062 -13.83984375 6.45703125 C-19.61469446 8.12843518 -19.61469446 8.12843518 -23 7 C-22 5 -22 5 -18.359375 3.7109375 C-16.82532657 3.25739275 -15.28871457 2.81245274 -13.75 2.375 C-12.98558594 2.14554688 -12.22117187 1.91609375 -11.43359375 1.6796875 C-7.53259316 0.54779096 -4.10605985 -0.31206055 0 0 Z " fill="#84AED0" transform="translate(521,678)"/>
<path d="M0 0 C4.73474097 1.6996506 8.96167111 4.13659027 13.3125 6.625 C14.05306641 7.04523437 14.79363281 7.46546875 15.55664062 7.8984375 C17.37269011 8.92948495 19.18656533 9.96436046 21 11 C18.08057086 11.90521324 17.31148506 12.1318357 14.37890625 10.890625 C12.98478516 10.07851563 12.98478516 10.07851563 11.5625 9.25 C10.63566406 8.71890625 9.70882813 8.1878125 8.75390625 7.640625 C7.84511719 7.09921875 6.93632812 6.5578125 6 6 C5.08089844 5.49984375 4.16179687 4.9996875 3.21484375 4.484375 C1 3 1 3 0 0 Z " fill="#87B1C8" transform="translate(310,737)"/>
<path d="M0 0 C-1.27076039 3.81228118 -3.06730579 4.35941299 -6.53125 6.10742188 C-7.2634375 6.46384766 -7.995625 6.82027344 -8.75 7.1875 C-9.82507813 7.73954102 -9.82507813 7.73954102 -10.921875 8.30273438 C-14.73412149 10.19133811 -17.63699483 11.52390416 -22 11 C-18.29827831 7.92815242 -14.15955301 5.93178248 -9.875 3.8125 C-9.14667969 3.44447266 -8.41835938 3.07644531 -7.66796875 2.69726562 C-2.25342069 0 -2.25342069 0 0 0 Z " fill="#82ACCB" transform="translate(339,365)"/>
<path d="M0 0 C-1.32564953 3.0381839 -2.62904425 4.78945198 -5.2578125 6.796875 C-5.88300781 7.28027344 -6.50820313 7.76367188 -7.15234375 8.26171875 C-8.12880859 8.99841797 -8.12880859 8.99841797 -9.125 9.75 C-9.78371094 10.25660156 -10.44242188 10.76320313 -11.12109375 11.28515625 C-12.74214112 12.53030858 -14.37038213 13.76608569 -16 15 C-16.99 14.34 -17.98 13.68 -19 13 C-18.27554688 12.48050781 -17.55109375 11.96101562 -16.8046875 11.42578125 C-10.47992937 6.89415245 -10.47992937 6.89415245 -4.4375 2 C-2 0 -2 0 0 0 Z " fill="#82ADC8" transform="translate(723,696)"/>
<path d="M0 0 C0.66 0 1.32 0 2 0 C1.41889329 3.42754467 0.31446376 5.04538661 -2.16015625 7.453125 C-2.78857422 8.071875 -3.41699219 8.690625 -4.06445312 9.328125 C-4.72380859 9.96234375 -5.38316406 10.5965625 -6.0625 11.25 C-6.72572266 11.8996875 -7.38894531 12.549375 -8.07226562 13.21875 C-9.70829317 14.8194676 -11.35090912 16.41276193 -13 18 C-13.66 17.34 -14.32 16.68 -15 16 C-14.58113525 15.58637207 -14.16227051 15.17274414 -13.73071289 14.74658203 C-11.83870591 12.87533169 -9.95056815 11.00022415 -8.0625 9.125 C-7.40314453 8.47402344 -6.74378906 7.82304688 -6.06445312 7.15234375 C-5.43603516 6.52714844 -4.80761719 5.90195312 -4.16015625 5.2578125 C-3.57886963 4.6817627 -2.99758301 4.10571289 -2.39868164 3.51220703 C-0.90048064 2.03347525 -0.90048064 2.03347525 0 0 Z " fill="#81AFCA" transform="translate(762,577)"/>
<path d="M0 0 C-13.68653422 7.04856512 -13.68653422 7.04856512 -20 9 C-20.99 8.67 -21.98 8.34 -23 8 C-19.58604809 5.88483414 -16.15118278 4.04674942 -12.5 2.375 C-11.5821875 1.94960938 -10.664375 1.52421875 -9.71875 1.0859375 C-3.1086262 -1.5543131 -3.1086262 -1.5543131 0 0 Z " fill="#7EADC8" transform="translate(757,502)"/>
<path d="M0 0 C3.38154045 5.07231067 3.91894995 11.98306578 3 18 C1.484375 20.2734375 1.484375 20.2734375 0 22 C-0.19502282 19.08365878 -0.38129328 16.16720455 -0.5625 13.25 C-0.61857422 12.425 -0.67464844 11.6 -0.73242188 10.75 C-0.78076172 9.95078125 -0.82910156 9.1515625 -0.87890625 8.328125 C-0.9260376 7.5949707 -0.97316895 6.86181641 -1.02172852 6.10644531 C-0.99913793 3.91642774 -0.61487456 2.09512813 0 0 Z " fill="#81AEC7" transform="translate(461,328)"/>
<path d="M0 0 C0.66 0 1.32 0 2 0 C1.26733512 4.08641257 -0.68657975 7.59474154 -2.5625 11.25 C-2.89185547 11.8996875 -3.22121094 12.549375 -3.56054688 13.21875 C-4.37007565 14.81434294 -5.18455042 16.40742483 -6 18 C-6.99 18 -7.98 18 -9 18 C-7.51800377 14.13392289 -5.79247064 10.45082594 -3.9375 6.75 C-3.41027344 5.69296875 -2.88304687 4.6359375 -2.33984375 3.546875 C-1 1 -1 1 0 0 Z " fill="#85AECC" transform="translate(350,599)"/>
<path d="M0 0 C-3.22448147 2.14965431 -3.79930965 2.22152284 -7.44921875 1.9765625 C-8.29677734 1.925 -9.14433594 1.8734375 -10.01757812 1.8203125 C-10.89865234 1.75585938 -11.77972656 1.69140625 -12.6875 1.625 C-13.58017578 1.56828125 -14.47285156 1.5115625 -15.39257812 1.453125 C-17.59587413 1.31173702 -19.79801539 1.16034022 -22 1 C-15.04767803 -3.63488131 -7.58087079 -2.58072197 0 0 Z " fill="#7EAEC9" transform="translate(444,307)"/>
<path d="M0 0 C-2.25216145 3.09672199 -5.01994536 3.83992251 -8.66015625 4.66015625 C-12.76794857 5.25678051 -16.86097756 5.15266886 -21 5 C-18.05624297 2.05624297 -14.44036929 1.70862668 -10.5 0.8125 C-9.32244141 0.52729492 -9.32244141 0.52729492 -8.12109375 0.23632812 C-2.25440025 -1.12720012 -2.25440025 -1.12720012 0 0 Z " fill="#82ADCC" transform="translate(615,749)"/>
<path d="M0 0 C6 6 12 12 18 18 C12.88448721 16.70407009 9.78846179 14.40701197 6.1875 10.6875 C5.69830078 10.21376953 5.20910156 9.74003906 4.70507812 9.25195312 C1.79600655 6.31069266 0.34055018 4.15471225 0 0 Z " fill="#82AEC6" transform="translate(279,709)"/>
<path d="M0 0 C0.33 0.66 0.66 1.32 1 2 C3.54941373 2.31241371 6.00361513 2.51303421 8.5625 2.625 C9.62887695 2.68300781 9.62887695 2.68300781 10.71679688 2.7421875 C12.47742425 2.83671783 14.23867728 2.91945817 16 3 C15.67 3.66 15.34 4.32 15 5 C9.39 5 3.78 5 -2 5 C-2 3.68 -2 2.36 -2 1 C-1.34 0.67 -0.68 0.34 0 0 Z " fill="#82ACC8" transform="translate(378,759)"/>
<path d="M0 0 C0 0.66 0 1.32 0 2 C-13.6332574 6.59225513 -13.6332574 6.59225513 -20 6 C-16.98055519 3.46366636 -14.36622257 2.30959233 -10.5625 1.3125 C-9.63566406 1.06113281 -8.70882813 0.80976562 -7.75390625 0.55078125 C-5.08550598 0.0171012 -2.71211475 -0.10336553 0 0 Z " fill="#83ADC7" transform="translate(507,664)"/>
<path d="M0 0 C-2.91577627 2.91577627 -6.51108535 3.56105977 -10.375 4.6875 C-11.14328125 4.92533203 -11.9115625 5.16316406 -12.703125 5.40820312 C-13.44820312 5.62798828 -14.19328125 5.84777344 -14.9609375 6.07421875 C-15.97873291 6.37718872 -15.97873291 6.37718872 -17.01708984 6.6862793 C-19.29129433 7.04608633 -20.82377339 6.69470212 -23 6 C-22.01 6 -21.02 6 -20 6 C-20 5.34 -20 4.68 -20 4 C-6.3667426 -0.59225513 -6.3667426 -0.59225513 0 0 Z " fill="#80AECD" transform="translate(710,638)"/>
<path d="M0 0 C0.66 0 1.32 0 2 0 C-0.33333333 7 -2.66666667 14 -5 21 C-5.33 21 -5.66 21 -6 21 C-6.84662334 13.71903924 -3.90652028 7.57540653 -1 1 C-0.67 0.67 -0.34 0.34 0 0 Z " fill="#84B2CC" transform="translate(266,599)"/>
<path d="M0 0 C0 3 0 3 -1 5 C-0.01 5 0.98 5 2 5 C2 5.66 2 6.32 2 7 C-1.3 8.32 -4.6 9.64 -8 11 C-8 7 -8 7 -6.25 5.078125 C-5.5075 4.47484375 -4.765 3.8715625 -4 3.25 C-3.2575 2.63640625 -2.515 2.0228125 -1.75 1.390625 C-1.1725 0.93171875 -0.595 0.4728125 0 0 Z " fill="#72ACCE" transform="translate(310,373)"/>
<path d="M0 0 C-0.66 0 -1.32 0 -2 0 C-2 0.66 -2 1.32 -2 2 C-4.22746539 2.36471355 -6.45707292 2.71635972 -8.6875 3.0625 C-10.54955078 3.35833984 -10.54955078 3.35833984 -12.44921875 3.66015625 C-15.66070857 3.96752656 -17.91783919 3.84273231 -21 3 C-17.5275307 0.68502047 -15.173209 0.38618761 -11.0625 -0.1875 C-9.83660156 -0.36667969 -8.61070312 -0.54585937 -7.34765625 -0.73046875 C-4.47429544 -0.96181285 -2.67489081 -0.94526216 0 0 Z " fill="#7BAAC5" transform="translate(585,756)"/>
<path d="M0 0 C0 0.33 0 0.66 0 1 C-17.96875 4.35416667 -17.96875 4.35416667 -23 1 C-7.25512528 -1.48063781 -7.25512528 -1.48063781 0 0 Z " fill="#85AECD" transform="translate(569,759)"/>
<path d="M0 0 C0.66 0.66 1.32 1.32 2 2 C-0.26403208 3.84232994 -2.5354564 5.67387834 -4.8125 7.5 C-5.77639648 8.28697266 -5.77639648 8.28697266 -6.75976562 9.08984375 C-7.38173828 9.58613281 -8.00371094 10.08242188 -8.64453125 10.59375 C-9.21534424 11.05458984 -9.78615723 11.51542969 -10.37426758 11.99023438 C-12 13 -12 13 -15 13 C-12.14469286 9.11814196 -9.1867866 6.45262392 -5.25 3.6875 C-4.26515625 2.99011719 -3.2803125 2.29273438 -2.265625 1.57421875 C-1.51796875 1.05472656 -0.7703125 0.53523437 0 0 Z " fill="#80AECA" transform="translate(415,722)"/>
<path d="M0 0 C-16.90517241 6.69827586 -16.90517241 6.69827586 -22 5 C-21.34 5 -20.68 5 -20 5 C-20 4.34 -20 3.68 -20 3 C-3.49253731 -1.74626866 -3.49253731 -1.74626866 0 0 Z " fill="#7EADC9" transform="translate(719,517)"/>
<path d="M0 0 C0.99 0.33 1.98 0.66 3 1 C3 2.98 3 4.96 3 7 C1.68 6.34 0.36 5.68 -1 5 C-1.78375 5.66 -2.5675 6.32 -3.375 7 C-6 9 -6 9 -8 9 C-6.95125002 6.37812506 -6.35068687 5.20628639 -3.875 3.75 C-3.25625 3.5025 -2.6375 3.255 -2 3 C-2 2.34 -2 1.68 -2 1 C-1.34 0.67 -0.68 0.34 0 0 Z " fill="#69A9CA" transform="translate(790,477)"/>
<path d="M0 0 C-2.79916389 1.86610926 -4.81938269 2.68785383 -8 3.625 C-8.86625 3.88539063 -9.7325 4.14578125 -10.625 4.4140625 C-13 5 -13 5 -16 5 C-15.67 4.01 -15.34 3.02 -15 2 C-12.890625 1.015625 -12.890625 1.015625 -10.25 0.25 C-9.38890625 -0.01296875 -8.5278125 -0.2759375 -7.640625 -0.546875 C-4.77464928 -1.03866965 -2.79038289 -0.74276379 0 0 Z " fill="#7EA9C6" transform="translate(633,745)"/>
<path d="M0 0 C0.66 0.66 1.32 1.32 2 2 C1.06027344 3.03060547 1.06027344 3.03060547 0.1015625 4.08203125 C-0.71570313 4.98308594 -1.53296875 5.88414062 -2.375 6.8125 C-3.18710937 7.70582031 -3.99921875 8.59914063 -4.8359375 9.51953125 C-7.09072907 11.99632674 -7.09072907 11.99632674 -9 15 C-9.66 15 -10.32 15 -11 15 C-9.58319756 10.67953102 -7.46236215 7.99538801 -4.375 4.6875 C-3.55773437 3.80449219 -2.74046875 2.92148437 -1.8984375 2.01171875 C-0.95871094 1.01591797 -0.95871094 1.01591797 0 0 Z " fill="#80ADCB" transform="translate(380,730)"/>
<path d="M0 0 C-3.32588996 2.87310791 -6.55462692 3.97084181 -10.75 5.1875 C-11.92046875 5.53167969 -13.0909375 5.87585938 -14.296875 6.23046875 C-15.63492188 6.61138672 -15.63492188 6.61138672 -17 7 C-17 6.01 -17 5.02 -17 4 C-5.47835991 -0.59225513 -5.47835991 -0.59225513 0 0 Z " fill="#82ADCB" transform="translate(730,631)"/>
<path d="M0 0 C0.99 0.33 1.98 0.66 3 1 C-0.96 4.96 -4.92 8.92 -9 13 C-9.33 12.01 -9.66 11.02 -10 10 C-6.7 6.7 -3.4 3.4 0 0 Z " fill="#82AFCA" transform="translate(395,738)"/>
<path d="M0 0 C2.27477677 3.53854164 1.99082706 5.70947373 1.125 9.75 C0.92132812 10.73484375 0.71765625 11.7196875 0.5078125 12.734375 C0.34023438 13.48203125 0.17265625 14.2296875 0 15 C-0.99 15.33 -1.98 15.66 -3 16 C-2.30834212 10.58201328 -1.24200752 5.3177215 0 0 Z " fill="#80ACCD" transform="translate(787,521)"/>
<path d="M0 0 C-4.07523049 3.42319361 -8.57062751 5.84493367 -13.9375 6.1875 C-14.9584375 6.0946875 -14.9584375 6.0946875 -16 6 C-13.68037291 3.68037291 -11.53490348 2.69014783 -8.5625 1.3125 C-7.59441406 0.85488281 -6.62632812 0.39726563 -5.62890625 -0.07421875 C-3 -1 -3 -1 0 0 Z " fill="#81A9CF" transform="translate(728,609)"/>
<path d="M0 0 C-2.96346786 2.47186455 -5.54041689 3.66248361 -9.25 4.6875 C-10.14203125 4.93886719 -11.0340625 5.19023438 -11.953125 5.44921875 C-12.62859375 5.63097656 -13.3040625 5.81273437 -14 6 C-13 3 -13 3 -10.8203125 1.796875 C-9.93085938 1.45140625 -9.04140625 1.1059375 -8.125 0.75 C-7.24070312 0.39421875 -6.35640625 0.0384375 -5.4453125 -0.328125 C-3 -1 -3 -1 0 0 Z " fill="#81ACCB" transform="translate(510,572)"/>
<path d="M0 0 C0 0.66 0 1.32 0 2 C-1.5811292 2.50692692 -3.16501383 3.00526443 -4.75 3.5 C-5.63171875 3.7784375 -6.5134375 4.056875 -7.421875 4.34375 C-10 5 -10 5 -14 5 C-14 4.34 -14 3.68 -14 3 C-12.23050388 2.49528803 -10.45934777 1.99639315 -8.6875 1.5 C-7.70136719 1.2215625 -6.71523438 0.943125 -5.69921875 0.65625 C-3 0 -3 0 0 0 Z " fill="#83B0CE" transform="translate(607,543)"/>
<path d="M0 0 C3.11728368 1.36508501 5.08663738 2.86919698 7.3125 5.4375 C7.84488281 6.03433594 8.37726563 6.63117188 8.92578125 7.24609375 C9.45751953 8.11427734 9.45751953 8.11427734 10 9 C9.67 9.99 9.34 10.98 9 12 C1.33257403 4.88610478 1.33257403 4.88610478 0 0 Z " fill="#84AFCE" transform="translate(488,273)"/>
<path d="M0 0 C-3.82089454 2.22885515 -7.68638323 3.16510643 -12 4 C-12.66 3.34 -13.32 2.68 -14 2 C-8.79666866 -0.24281523 -5.65735415 -1.55577239 0 0 Z " fill="#87AECC" transform="translate(690,625)"/>
<path d="M0 0 C-3.16566573 2.11044382 -5.51197415 2.75552077 -9.1875 3.625 C-10.27417969 3.88539063 -11.36085938 4.14578125 -12.48046875 4.4140625 C-13.31191406 4.60742188 -14.14335938 4.80078125 -15 5 C-15 4.01 -15 3.02 -15 2 C-9.87080814 -0.10428384 -5.4389165 -0.21755666 0 0 Z " fill="#80ADCF" transform="translate(576,552)"/>
<path d="M0 0 C0.33 0.66 0.66 1.32 1 2 C-2.96 7.94 -2.96 7.94 -7 14 C-8 10 -8 10 -6.85546875 7.67578125 C-6.30503906 6.89589844 -5.75460937 6.11601562 -5.1875 5.3125 C-4.64480469 4.52488281 -4.10210937 3.73726563 -3.54296875 2.92578125 C-2 1 -2 1 0 0 Z " fill="#84B0C9" transform="translate(446,388)"/>
<path d="M0 0 C-1.14656875 3.43970626 -1.84518278 3.8782229 -4.8125 5.75 C-5.49957031 6.19859375 -6.18664062 6.6471875 -6.89453125 7.109375 C-9.39934831 8.16892656 -10.49281235 7.92399724 -13 7 C-11.21190303 5.82786955 -9.41940875 4.66244474 -7.625 3.5 C-6.62726563 2.8503125 -5.62953125 2.200625 -4.6015625 1.53125 C-2 0 -2 0 0 0 Z " fill="#80ADCD" transform="translate(374,344)"/>
<path d="M0 0 C0.66 0 1.32 0 2 0 C1.34 4.29 0.68 8.58 0 13 C-0.99 13 -1.98 13 -3 13 C-2.69128878 11.20767663 -2.37790936 9.41615679 -2.0625 7.625 C-1.88847656 6.62726563 -1.71445312 5.62953125 -1.53515625 4.6015625 C-1 2 -1 2 0 0 Z " fill="#81AACB" transform="translate(334,303)"/>
<path d="M0 0 C0.33 0.66 0.66 1.32 1 2 C0.26821134 4.07196631 -0.55899003 6.1108552 -1.4375 8.125 C-1.91058594 9.22070312 -2.38367188 10.31640625 -2.87109375 11.4453125 C-3.24363281 12.28835938 -3.61617188 13.13140625 -4 14 C-4.33 14 -4.66 14 -5 14 C-4.45323217 9.44360141 -3.72706364 5.2668631 -2 1 C-1.34 0.67 -0.68 0.34 0 0 Z " fill="#84B0CC" transform="translate(459,361)"/>
<path d="M0 0 C6.93 0 13.86 0 21 0 C21 0.33 21 0.66 21 1 C19.81921875 1.06058594 18.6384375 1.12117187 17.421875 1.18359375 C15.8645723 1.26802582 14.30728121 1.35267249 12.75 1.4375 C11.97269531 1.47681641 11.19539063 1.51613281 10.39453125 1.55664062 C9.26337891 1.61948242 9.26337891 1.61948242 8.109375 1.68359375 C7.07248535 1.73858032 7.07248535 1.73858032 6.01464844 1.79467773 C3.93371671 2.00675524 2.01427578 2.44508677 0 3 C0 2.01 0 1.02 0 0 Z " fill="#7BA8C7" transform="translate(493,763)"/>
<path d="M0 0 C0 3.88291746 -1.37860494 5.46752535 -3.5 8.6875 C-4.1496875 9.68136719 -4.799375 10.67523437 -5.46875 11.69921875 C-6.22671875 12.83810547 -6.22671875 12.83810547 -7 14 C-7.91662607 11.50722424 -8.17798858 10.41374538 -7.109375 7.9296875 C-6.66078125 7.25164063 -6.2121875 6.57359375 -5.75 5.875 C-5.09257812 4.85019531 -5.09257812 4.85019531 -4.421875 3.8046875 C-3 2 -3 2 0 0 Z " fill="#80AECB" transform="translate(287,564)"/>
<path d="M0 0 C0.66 0.99 1.32 1.98 2 3 C1.3203125 5.48046875 1.3203125 5.48046875 0.125 8.1875 C-0.26429688 9.08855469 -0.65359375 9.98960937 -1.0546875 10.91796875 C-1.36664062 11.60503906 -1.67859375 12.29210937 -2 13 C-2.66 12.67 -3.32 12.34 -4 12 C-3.52494322 10.18641846 -3.04483958 8.37415821 -2.5625 6.5625 C-2.29566406 5.55316406 -2.02882813 4.54382813 -1.75390625 3.50390625 C-1 1 -1 1 0 0 Z " fill="#85ADCA" transform="translate(783,539)"/>
<path d="M0 0 C0.99 0.33 1.98 0.66 3 1 C3 4.3 3 7.6 3 11 C2.34 11 1.68 11 1 11 C-0.20272819 8.59454362 -0.10071472 7.05003047 -0.0625 4.375 C-0.05347656 3.55773437 -0.04445313 2.74046875 -0.03515625 1.8984375 C-0.02355469 1.27195312 -0.01195312 0.64546875 0 0 Z " fill="#99B8DC" transform="translate(516,339)"/>
<path d="M0 0 C0.33 0.66 0.66 1.32 1 2 C1.66 2 2.32 2 3 2 C3 5.96 3 9.92 3 14 C2.34 13.67 1.68 13.34 1 13 C0.5859375 10.05859375 0.5859375 10.05859375 0.375 6.4375 C0.30023437 5.23996094 0.22546875 4.04242188 0.1484375 2.80859375 C0.09945312 1.88175781 0.05046875 0.95492188 0 0 Z " fill="#81B0CC" transform="translate(515,326)"/>
<path d="M0 0 C3.96996957 1.32332319 5.76036395 4.0089399 8.14453125 7.24609375 C9 9 9 9 8 12 C6.66081194 10.37982158 5.3288031 8.75370657 4 7.125 C3.2575 6.22007812 2.515 5.31515625 1.75 4.3828125 C0 2 0 2 0 0 Z " fill="#86AFC5" transform="translate(342,741)"/>
<path d="M0 0 C0.66 0 1.32 0 2 0 C0.43358249 4.30764815 -1.68336156 8.06171464 -4 12 C-4.9435441 9.46100862 -5.16906025 8.39090725 -4.07421875 5.859375 C-3.61660156 5.16328125 -3.15898437 4.4671875 -2.6875 3.75 C-2.23761719 3.04359375 -1.78773438 2.3371875 -1.32421875 1.609375 C-0.88722656 1.07828125 -0.45023437 0.5471875 0 0 Z " fill="#80AFC9" transform="translate(385,662)"/>
<path d="M0 0 C0.99 0.66 1.98 1.32 3 2 C1.21289414 2.86366822 -0.5798465 3.71568594 -2.375 4.5625 C-3.37273437 5.03816406 -4.37046875 5.51382813 -5.3984375 6.00390625 C-6.25695312 6.33261719 -7.11546875 6.66132812 -8 7 C-8.66 6.67 -9.32 6.34 -10 6 C-7.30574902 2.67180762 -3.99171426 1.35433162 0 0 Z " fill="#81AECB" transform="translate(490,578)"/>
<path d="M0 0 C0.99 0.33 1.98 0.66 3 1 C-3.07439825 7.70459519 -3.07439825 7.70459519 -6.9375 8.9375 C-7.9584375 8.9684375 -7.9584375 8.9684375 -9 9 C-6 6 -3 3 0 0 Z " fill="#83AECD" transform="translate(390,330)"/>
<path d="M0 0 C0.68359375 1.734375 0.68359375 1.734375 1 4 C-0.21484375 6.140625 -0.21484375 6.140625 -1.9375 8.25 C-2.50339844 8.95640625 -3.06929687 9.6628125 -3.65234375 10.390625 C-4.31943359 11.18726563 -4.31943359 11.18726563 -5 12 C-5.68359375 10.265625 -5.68359375 10.265625 -6 8 C-4.78515625 5.859375 -4.78515625 5.859375 -3.0625 3.75 C-2.49660156 3.04359375 -1.93070313 2.3371875 -1.34765625 1.609375 C-0.90292969 1.07828125 -0.45820312 0.5471875 0 0 Z " fill="#85B1C8" transform="translate(754,659)"/>
<path d="M0 0 C0.33 0.99 0.66 1.98 1 3 C-1.64 5.64 -4.28 8.28 -7 11 C-7.33 10.01 -7.66 9.02 -8 8 C-5.36 5.36 -2.72 2.72 0 0 Z " fill="#81B1CB" transform="translate(330,512)"/>
<path d="M0 0 C0.99 0.33 1.98 0.66 3 1 C0.03 3.97 -2.94 6.94 -6 10 C-6.33 9.01 -6.66 8.02 -7 7 C-4.69 4.69 -2.38 2.38 0 0 Z " fill="#83ACCF" transform="translate(405,316)"/>
<path d="M0 0 C-0.99 0.33 -1.98 0.66 -3 1 C-3 1.66 -3 2.32 -3 3 C-9.0546875 3.9765625 -9.0546875 3.9765625 -11 4 C-11.66 3.34 -12.32 2.68 -13 2 C-8.46298506 0.54815522 -4.81938524 -0.23509196 0 0 Z " fill="#80A9CB" transform="translate(605,643)"/>
<path d="M0 0 C0.66 0.66 1.32 1.32 2 2 C0.02 4.97 -1.96 7.94 -4 11 C-4.66 10.67 -5.32 10.34 -6 10 C-4.6302836 6.00499382 -2.74277578 3.19990508 0 0 Z " fill="#84B1CD" transform="translate(364,578)"/>
<path d="M0 0 C-2.54712074 2.00130916 -4.9527375 3.85727656 -8 5 C-10.125 4.546875 -10.125 4.546875 -12 4 C-10.56988027 3.13353333 -9.13059381 2.28218171 -7.6875 1.4375 C-6.48673828 0.72400391 -6.48673828 0.72400391 -5.26171875 -0.00390625 C-3 -1 -3 -1 0 0 Z " fill="#7FAECC" transform="translate(421,309)"/>
<path d="M0 0 C0.66 0.33 1.32 0.66 2 1 C2 1.99 2 2.98 2 4 C1.34 4 0.68 4 0 4 C0 9.28 0 14.56 0 20 C-0.33 20 -0.66 20 -1 20 C-1.02689449 17.04160645 -1.04678741 14.08345573 -1.0625 11.125 C-1.07087891 10.28324219 -1.07925781 9.44148437 -1.08789062 8.57421875 C-1.09111328 7.76855469 -1.09433594 6.96289062 -1.09765625 6.1328125 C-1.10289307 5.38918457 -1.10812988 4.64555664 -1.11352539 3.87939453 C-1 2 -1 2 0 0 Z " fill="#82AEC8" transform="translate(326,670)"/>
<path d="M0 0 C1.2065625 0.0309375 1.2065625 0.0309375 2.4375 0.0625 C-0.52533313 2.44922669 -3.50520509 4.7978371 -6.5625 7.0625 C-7.2225 6.7325 -7.8825 6.4025 -8.5625 6.0625 C-2.5625 0.0625 -2.5625 0.0625 0 0 Z " fill="#85B1CC" transform="translate(442.5625,604.9375)"/>
<path d="M0 0 C-1.66751148 3.94139078 -4.22710649 6.7892812 -7 10 C-7.33 9.01 -7.66 8.02 -8 7 C-6.85546875 5.17578125 -6.85546875 5.17578125 -5.1875 3.3125 C-4.37345703 2.37857422 -4.37345703 2.37857422 -3.54296875 1.42578125 C-2 0 -2 0 0 0 Z " fill="#82B1CA" transform="translate(437,403)"/>
<path d="M0 0 C1.48521677 0.75911079 2.96303425 1.53271234 4.4375 2.3125 C5.67306641 2.95638672 5.67306641 2.95638672 6.93359375 3.61328125 C9 5 9 5 10 8 C6.66666667 6.33333333 3.33333333 4.66666667 0 3 C0 2.01 0 1.02 0 0 Z " fill="#82ACCF" transform="translate(467,257)"/>
<path d="M0 0 C-3.41016497 2.86453858 -6.90694544 4.34703566 -11 6 C-11 5.01 -11 4.02 -11 3 C-7.14243493 0.84694043 -4.44870215 -0.39253254 0 0 Z " fill="#84AFD1" transform="translate(437,691)"/>
<path d="M0 0 C0.33 0.66 0.66 1.32 1 2 C-2.63 2.66 -6.26 3.32 -10 4 C-9.67 3.01 -9.34 2.02 -9 1 C-6.03421164 -0.16513114 -3.15436364 -0.08762121 0 0 Z " fill="#81ABD1" transform="translate(555,670)"/>
<path d="M0 0 C-0.33 0.99 -0.66 1.98 -1 3 C-4.5625 4.1875 -4.5625 4.1875 -8 5 C-8.33 4.01 -8.66 3.02 -9 2 C-3.375 0 -3.375 0 0 0 Z " fill="#85ACD1" transform="translate(641,741)"/>
<path d="M0 0 C0.75 1.625 0.75 1.625 1 4 C-0.8125 7.25 -0.8125 7.25 -3 10 C-3.66 10 -4.32 10 -5 10 C-3.66511872 6.40608886 -2.03977277 3.24509304 0 0 Z " fill="#83B1CD" transform="translate(763,644)"/>
<path d="M0 0 C0.33 0 0.66 0 1 0 C1.125 6.625 1.125 6.625 0 10 C-0.66 10 -1.32 10 -2 10 C-2.33 10.66 -2.66 11.32 -3 12 C-2.69106068 10.3743193 -2.3777305 8.74947252 -2.0625 7.125 C-1.88847656 6.22007812 -1.71445312 5.31515625 -1.53515625 4.3828125 C-1 2 -1 2 0 0 Z " fill="#82B3CB" transform="translate(333,635)"/>
<path d="M0 0 C0.66 0.33 1.32 0.66 2 1 C1.34 4.3 0.68 7.6 0 11 C-0.66 11 -1.32 11 -2 11 C-2.125 8.125 -2.125 8.125 -2 5 C-1.34 4.34 -0.68 3.68 0 3 C-0.66 2.34 -1.32 1.68 -2 1 C-1.34 0.67 -0.68 0.34 0 0 Z " fill="#6EAED1" transform="translate(779,597)"/>
<path d="M0 0 C0.99 0 1.98 0 3 0 C2.88590407 1.45922693 2.75834456 2.91740598 2.625 4.375 C2.55539062 5.18710937 2.48578125 5.99921875 2.4140625 6.8359375 C2 9 2 9 0 11 C-1.37432457 7.18243176 -0.67975039 3.92744671 0 0 Z " fill="#8AB2C7" transform="translate(460,348)"/>
<path d="M0 0 C3.99500618 1.3697164 6.80009492 3.25722422 10 6 C9.01 6.33 8.02 6.66 7 7 C1.26229508 3.78688525 1.26229508 3.78688525 0 0 Z " fill="#80A9CD" transform="translate(310,737)"/>
<path d="M0 0 C-3.36423277 2.96052484 -6.69159287 3.92289822 -11 5 C-10 2 -10 2 -7.75 0.8125 C-5.00208853 0.00061706 -2.84552111 -0.16260121 0 0 Z " fill="#82B1CC" transform="translate(468,696)"/>
<path d="M0 0 C-2.42130331 2.42130331 -3.80111377 2.52840504 -7.125 3.125 C-8.49011719 3.37636719 -8.49011719 3.37636719 -9.8828125 3.6328125 C-10.58148437 3.75398437 -11.28015625 3.87515625 -12 4 C-11.34 3.67 -10.68 3.34 -10 3 C-10 2.34 -10 1.68 -10 1 C-6.52674819 -0.1577506 -3.63932552 -0.06866652 0 0 Z " fill="#80B0CA" transform="translate(553,558)"/>
<path d="M0 0 C0.66 0 1.32 0 2 0 C1.01 2.97 0.02 5.94 -1 9 C-1.99 9 -2.98 9 -4 9 C-2.68 6.03 -1.36 3.06 0 0 Z " fill="#82ACC8" transform="translate(328,342)"/>
<path d="M0 0 C-1.36983503 3.16115776 -1.9890638 3.9927092 -5 6 C-7.1875 5.625 -7.1875 5.625 -9 5 C-7.87926138 4.16094435 -6.75325453 3.32892169 -5.625 2.5 C-4.99851562 2.0359375 -4.37203125 1.571875 -3.7265625 1.09375 C-2 0 -2 0 0 0 Z " fill="#84ADD1" transform="translate(421,698)"/>
<path d="M0 0 C-1.45264038 0.8638129 -2.9123163 1.71580454 -4.375 2.5625 C-5.59316406 3.27599609 -5.59316406 3.27599609 -6.8359375 4.00390625 C-7.55007813 4.33261719 -8.26421875 4.66132812 -9 5 C-9.66 4.67 -10.32 4.34 -11 4 C-4.02040816 -2.01020408 -4.02040816 -2.01020408 0 0 Z " fill="#7EABC8" transform="translate(751,622)"/>
<path d="M0 0 C0 0.66 0 1.32 0 2 C-3.4019487 4.09350689 -6.05272412 4.17942163 -10 4 C-6.64877401 1.34213111 -4.39380802 0 0 0 Z " fill="#80ABCC" transform="translate(700,620)"/>
<path d="M0 0 C-3.79692186 2.82561627 -6.18569279 4.56638908 -11 4 C-4.45754717 -1.33726415 -4.45754717 -1.33726415 0 0 Z " fill="#81ABCD" transform="translate(352,360)"/>
<path d="M0 0 C2.67927341 4.01891012 2.15601248 6.24161923 2 11 C1.34 11 0.68 11 0 11 C-1.28571429 3.57142857 -1.28571429 3.57142857 0 0 Z " fill="#74ADCE" transform="translate(461,328)"/>
<path d="M0 0 C3.67420866 0.30618405 4.78135513 0.75771784 7.3125 3.5625 C8.1478125 4.7690625 8.1478125 4.7690625 9 6 C4.58763974 6 3.21615077 3.9302707 0 1 C0 0.67 0 0.34 0 0 Z " fill="#7FAFC9" transform="translate(478,266)"/>
<path d="M0 0 C2.29633824 3.44450737 2.54016485 5.93812283 3 10 C1 9 1 9 -0.1875 6.6875 C-1.03624754 3.88010429 -0.99928333 2.698065 0 0 Z " fill="#82AFC7" transform="translate(333,719)"/>
<path d="M0 0 C-1.29299694 2.88437779 -2.65941363 4.87219421 -5 7 C-5.99 6.67 -6.98 6.34 -8 6 C-7.0479279 4.99403703 -6.08812654 3.99538437 -5.125 3 C-4.59132813 2.443125 -4.05765625 1.88625 -3.5078125 1.3125 C-2 0 -2 0 0 0 Z " fill="#86B1CA" transform="translate(396,716)"/>
<path d="M0 0 C-1.0975223 2.99324263 -1.67682892 3.84610901 -4.625 5.25 C-5.40875 5.4975 -6.1925 5.745 -7 6 C-7 5.01 -7 4.02 -7 3 C-2.77777778 0 -2.77777778 0 0 0 Z " fill="#7FABCB" transform="translate(702,712)"/>
<path d="M0 0 C0 0.66 0 1.32 0 2 C-2.64 2.66 -5.28 3.32 -8 4 C-8 3.01 -8 2.02 -8 1 C-5.29120665 -0.35439668 -2.99066732 -0.06501451 0 0 Z " fill="#84ADCA" transform="translate(631,638)"/>
<path d="M0 0 C0.99 0.33 1.98 0.66 3 1 C-0.465 3.97 -0.465 3.97 -4 7 C-4.33 6.01 -4.66 5.02 -5 4 C-2.6875 1.9375 -2.6875 1.9375 0 0 Z " fill="#84AEC7" transform="translate(427,615)"/>
<path d="M0 0 C0.33 0.99 0.66 1.98 1 3 C-0.62339805 4.70884005 -2.29319053 6.37446717 -4 8 C-4.66 8 -5.32 8 -6 8 C-4.55746343 4.63408134 -2.66735273 2.48952921 0 0 Z " fill="#83B1CC" transform="translate(414,518)"/>
<path d="M0 0 C0.66 0.99 1.32 1.98 2 3 C-3.75 8 -3.75 8 -6 8 C-6 7.34 -6 6.68 -6 6 C-5.34 6 -4.68 6 -4 6 C-4 5.34 -4 4.68 -4 4 C-2.70766393 2.62689293 -1.37562854 1.28965176 0 0 Z " fill="#97BED5" transform="translate(394,448)"/>
<path d="M0 0 C-1.49097658 3.7952131 -3.75700849 5.61042731 -7 8 C-6.44414399 4.1090079 -4.34122117 0 0 0 Z " fill="#80AFCF" transform="translate(416,428)"/>
<path d="M0 0 C0.99 0.33 1.98 0.66 3 1 C0.525 4.465 0.525 4.465 -2 8 C-2.66 7.67 -3.32 7.34 -4 7 C-2.68 4.69 -1.36 2.38 0 0 Z " fill="#85B0CC" transform="translate(492,422)"/>
<path d="M0 0 C0.66 0 1.32 0 2 0 C0.68775452 3.93673644 -0.91910327 6.22719294 -4 9 C-3.4739075 5.21213403 -2.61896089 2.82847776 0 0 Z " fill="#7EA9CB" transform="translate(317,362)"/>
<path d="M0 0 C0.66 0.66 1.32 1.32 2 2 C-6.42857143 3.28571429 -6.42857143 3.28571429 -11 2 C-6.93150591 -0.71232939 -4.83523216 -0.30699887 0 0 Z " fill="#69B3CA" transform="translate(575,757)"/>
<path d="M0 0 C0.66 0.66 1.32 1.32 2 2 C-3.75 6 -3.75 6 -6 6 C-4.75453595 2.26360784 -3.36595047 1.81243487 0 0 Z " fill="#81AEC9" transform="translate(429,713)"/>
<path d="M0 0 C-2.90092502 1.93395001 -3.89674737 2.30131941 -7.1875 2.625 C-8.445625 2.74875 -9.70375 2.8725 -11 3 C-7.18178484 -0.02823961 -4.81391924 -1.49397494 0 0 Z " fill="#81B0CC" transform="translate(533,676)"/>
<path d="M0 0 C-0.99 0 -1.98 0 -3 0 C-3 0.66 -3 1.32 -3 2 C-6.32534757 3.10844919 -8.62182575 2.84454356 -12 2 C-7.72170329 -0.29194467 -4.74957752 -1.52664992 0 0 Z " fill="#82AACB" transform="translate(548,655)"/>
<path d="M0 0 C0.33 0.66 0.66 1.32 1 2 C-3.455 2.495 -3.455 2.495 -8 3 C-8 2.34 -8 1.68 -8 1 C-5.07175348 0.02391783 -3.04386724 -0.08226668 0 0 Z " fill="#81AAC8" transform="translate(621,640)"/>
<path d="M0 0 C1.98 0 3.96 0 6 0 C6 0.66 6 1.32 6 2 C3.69 2.33 1.38 2.66 -1 3 C-0.67 2.01 -0.34 1.02 0 0 Z " fill="#95B5D7" transform="translate(394,762)"/>
<path d="M0 0 C-5.2734375 3.22265625 -5.2734375 3.22265625 -7 4 C-7.66 3.67 -8.32 3.34 -9 3 C-5.83583464 -0.30799106 -4.50236011 -1.35070803 0 0 Z " fill="#81B2CC" transform="translate(442,709)"/>
<path d="M0 0 C3 1 3 1 3 1 Z M-6 1 C-4.02 1 -2.04 1 0 1 C0 1.66 0 2.32 0 3 C-1.98 3.33 -3.96 3.66 -6 4 C-6 3.01 -6 2.02 -6 1 Z " fill="#85AFC9" transform="translate(651,633)"/>
<path d="M0 0 C0.33 0 0.66 0 1 0 C0.67 2.31 0.34 4.62 0 7 C-0.66 7 -1.32 7 -2 7 C-2.33 7.66 -2.66 8.32 -3 9 C-2.5020163 5.26512223 -2.12508244 3.18762365 0 0 Z " fill="#7DA7C8" transform="translate(777,609)"/>
<path d="M0 0 C0.99 0.66 1.98 1.32 3 2 C1.02 3.32 -0.96 4.64 -3 6 C-3.66 5.67 -4.32 5.34 -5 5 C-3.35 3.35 -1.7 1.7 0 0 Z " fill="#81ACCB" transform="translate(369,261)"/>
<path d="M0 0 C-1.28650706 0.69710731 -2.57940665 1.38242876 -3.875 2.0625 C-4.95394531 2.63677734 -4.95394531 2.63677734 -6.0546875 3.22265625 C-6.69664062 3.47917969 -7.33859375 3.73570312 -8 4 C-8.66 3.67 -9.32 3.34 -10 3 C-7.30922307 -0.25725628 -4.0224365 -2.01121825 0 0 Z " fill="#7DABCE" transform="translate(456,702)"/>
<path d="M0 0 C0.66 0 1.32 0 2 0 C1.01 2.97 0.02 5.94 -1 9 C-1.33 9 -1.66 9 -2 9 C-1.125 2.25 -1.125 2.25 0 0 Z " fill="#82AFCA" transform="translate(376,679)"/>
<path d="M0 0 C0.99 0 1.98 0 3 0 C3.33 2.31 3.66 4.62 4 7 C3.34 7 2.68 7 2 7 C1.34 4.69 0.68 2.38 0 0 Z " fill="#82ABCA" transform="translate(256,665)"/>
<path d="M0 0 C0.33 0 0.66 0 1 0 C1.66 3.63 2.32 7.26 3 11 C2.34 11 1.68 11 1 11 C-0.98362069 8.08291076 -0.9876191 6.87619096 -0.625 3.25 C-0.41875 2.1775 -0.2125 1.105 0 0 Z " fill="#9DC2D6" transform="translate(515,317)"/>
<path d="M0 0 C0.99 0 1.98 0 3 0 C3.99 1.98 4.98 3.96 6 6 C5.01 6 4.02 6 3 6 C2.01 4.02 1.02 2.04 0 0 Z " fill="#83B0CE" transform="translate(502,292)"/>
<path d="" fill="#FFFFFF" transform="translate(0,0)"/>
<path d="" fill="#FFFFFF" transform="translate(0,0)"/>
<path d="" fill="#FFFFFF" transform="translate(0,0)"/>
<path d="" fill="#FFFFFF" transform="translate(0,0)"/>
</svg>
